# xmcd
# 
# Track frame offsets:
#     150
#     24945
#     53405
#     79675
#     101275
#     131770
#     155707
#     180225
#     209075
#     233725
#     258832
# 
# Disc length: 3776
# 
# Revision: 1
# Processed by: cddbd v1.5.2PL0 Copyright (c) Steve Scherf et al.
# Submitted via: fre:ac v1.0.31
# 
DISCID=810ebe0b
DTITLE=劉星 - 一意孤行 My Way (XRCD)
DYEAR=0
DGENRE=Crossover
TTITLE0=閒雲孤鶴 Still Clouds and a Solitary Crane
TTITLE1=無所不至 Omnipresence
TTITLE2=孤芳自賞 A Solitary Flower in Love With Itself
TTITLE3=虛懷若谷 Be Open-minded as a Valley
TTITLE4=一息尚存 One's Last Gasp
TTITLE5=輪迴 Samsara
TTITLE6=行雲流水 Drifting Clouds and Flowing Water
TTITLE7=即興曲 (一) Impromptu I
TTITLE8=遙遙長路 A Long, Long Way to Go
TTITLE9=一意孤行 My Way
TTITLE10=即興曲 (二) Impromptu II
EXTD=Info URL: http://www.amazon.com/gp/product/B00005S24B
EXTT0=
EXTT1=
EXTT2=
EXTT3=
EXTT4=
EXTT5=
EXTT6=
EXTT7=
EXTT8=
EXTT9=
EXTT10=
PLAYORDER=
